<mxfile host="app.diagrams.net" modified="2021-08-27T08:50:09.159Z" agent="5.0 (Macintosh; Intel Mac OS X 10_15_7) AppleWebKit/537.36 (KHTML, like Gecko) Chrome/92.0.4515.159 Safari/537.36" etag="aQudjf-3yXGIfsLMk8XT" version="15.0.2" type="github">
  <diagram id="BzFDuiHXFkppXd8xRQQR" name="Page-1">
    <mxGraphModel dx="1369" dy="744" grid="1" gridSize="10" guides="1" tooltips="1" connect="1" arrows="1" fold="1" page="1" pageScale="1" pageWidth="827" pageHeight="1169" math="0" shadow="0">
      <root>
        <mxCell id="0" />
        <mxCell id="1" parent="0" />
        <mxCell id="ge5Rd4oWmrTJXzyXmEn_-1" value="" style="edgeStyle=none;rounded=1;jumpStyle=none;jumpSize=6;html=1;shadow=0;labelBackgroundColor=none;startArrow=none;startFill=0;endArrow=classic;endFill=1;jettySize=auto;orthogonalLoop=1;strokeColor=#1A1A1A;strokeWidth=2;fillColor=#B3FF66;gradientColor=#CCFF99;fontFamily=Comic Sans MS;fontSize=14;fontColor=#1A1A1A;" edge="1" parent="1" source="ge5Rd4oWmrTJXzyXmEn_-3" target="ge5Rd4oWmrTJXzyXmEn_-7">
          <mxGeometry relative="1" as="geometry" />
        </mxCell>
        <mxCell id="ge5Rd4oWmrTJXzyXmEn_-2" style="edgeStyle=none;rounded=1;jumpStyle=none;jumpSize=6;html=1;shadow=0;labelBackgroundColor=none;startArrow=none;startFill=0;endArrow=classic;endFill=1;jettySize=auto;orthogonalLoop=1;strokeColor=#1A1A1A;strokeWidth=2;fillColor=#B3FF66;gradientColor=#CCFF99;fontFamily=Comic Sans MS;fontSize=14;fontColor=#1A1A1A;exitX=0.5;exitY=1;" edge="1" parent="1" source="ge5Rd4oWmrTJXzyXmEn_-3">
          <mxGeometry relative="1" as="geometry">
            <mxPoint x="367" y="190" as="targetPoint" />
          </mxGeometry>
        </mxCell>
        <mxCell id="ge5Rd4oWmrTJXzyXmEn_-3" value="Producer" style="rounded=1;whiteSpace=wrap;html=1;labelBackgroundColor=none;strokeColor=#1A1A1A;strokeWidth=2;fillColor=#F2F2F2;gradientColor=none;fontFamily=Comic Sans MS;fontSize=14;fontColor=#1A1A1A;align=center;" vertex="1" parent="1">
          <mxGeometry x="163" y="70" width="90" height="40" as="geometry" />
        </mxCell>
        <mxCell id="ge5Rd4oWmrTJXzyXmEn_-4" style="edgeStyle=none;rounded=1;jumpStyle=none;jumpSize=6;html=1;entryX=0.5;entryY=0;shadow=0;labelBackgroundColor=none;startArrow=none;startFill=0;endArrow=classic;endFill=1;jettySize=auto;orthogonalLoop=1;strokeColor=#1A1A1A;strokeWidth=2;fillColor=#B3FF66;gradientColor=#CCFF99;fontFamily=Comic Sans MS;fontSize=14;fontColor=#1A1A1A;exitX=0.5;exitY=1;" edge="1" parent="1" source="ge5Rd4oWmrTJXzyXmEn_-6" target="ge5Rd4oWmrTJXzyXmEn_-7">
          <mxGeometry relative="1" as="geometry" />
        </mxCell>
        <mxCell id="ge5Rd4oWmrTJXzyXmEn_-5" style="edgeStyle=none;rounded=1;jumpStyle=none;jumpSize=6;html=1;entryX=0.5;entryY=0;shadow=0;labelBackgroundColor=none;startArrow=none;startFill=0;endArrow=classic;endFill=1;jettySize=auto;orthogonalLoop=1;strokeColor=#1A1A1A;strokeWidth=2;fillColor=#B3FF66;gradientColor=#CCFF99;fontFamily=Comic Sans MS;fontSize=14;fontColor=#1A1A1A;exitX=0.5;exitY=1;" edge="1" parent="1" source="ge5Rd4oWmrTJXzyXmEn_-6" target="ge5Rd4oWmrTJXzyXmEn_-17">
          <mxGeometry relative="1" as="geometry" />
        </mxCell>
        <mxCell id="ge5Rd4oWmrTJXzyXmEn_-6" value="Producer" style="rounded=1;whiteSpace=wrap;html=1;labelBackgroundColor=none;strokeColor=#1A1A1A;strokeWidth=2;fillColor=#F2F2F2;gradientColor=none;fontFamily=Comic Sans MS;fontSize=14;fontColor=#1A1A1A;align=center;" vertex="1" parent="1">
          <mxGeometry x="328" y="70" width="90" height="40" as="geometry" />
        </mxCell>
        <mxCell id="ge5Rd4oWmrTJXzyXmEn_-7" value="" style="rounded=0;whiteSpace=wrap;html=1;labelBackgroundColor=none;strokeColor=#FFFFFF;strokeWidth=2;fillColor=#66B2FF;gradientColor=none;fontFamily=Comic Sans MS;fontSize=14;fontColor=#1A1A1A;align=center;" vertex="1" parent="1">
          <mxGeometry x="148" y="190" width="120" height="210" as="geometry" />
        </mxCell>
        <mxCell id="ge5Rd4oWmrTJXzyXmEn_-8" value="&lt;font style=&quot;font-size: 12px&quot;&gt;TopicA-Part0&lt;/font&gt;" style="rounded=0;whiteSpace=wrap;html=1;labelBackgroundColor=none;strokeColor=#1A1A1A;strokeWidth=2;fillColor=#E5CCFF;gradientColor=none;fontFamily=Comic Sans MS;fontSize=14;fontColor=#1A1A1A;align=center;" vertex="1" parent="1">
          <mxGeometry x="163" y="232" width="90" height="40" as="geometry" />
        </mxCell>
        <mxCell id="ge5Rd4oWmrTJXzyXmEn_-9" value="Leader" style="text;html=1;strokeColor=none;fillColor=none;align=center;verticalAlign=middle;whiteSpace=wrap;rounded=0;labelBackgroundColor=none;fontFamily=Comic Sans MS;fontSize=14;fontColor=#1A1A1A;" vertex="1" parent="1">
          <mxGeometry x="187" y="206" width="40" height="20" as="geometry" />
        </mxCell>
        <mxCell id="ge5Rd4oWmrTJXzyXmEn_-10" value="&lt;font style=&quot;font-size: 12px&quot;&gt;TopicA-Part1&lt;/font&gt;" style="rounded=0;whiteSpace=wrap;html=1;labelBackgroundColor=none;strokeColor=#1A1A1A;strokeWidth=2;fillColor=#99FFCC;gradientColor=none;fontFamily=Comic Sans MS;fontSize=14;fontColor=#1A1A1A;align=center;" vertex="1" parent="1">
          <mxGeometry x="163" y="322" width="90" height="40" as="geometry" />
        </mxCell>
        <mxCell id="ge5Rd4oWmrTJXzyXmEn_-11" value="Follower" style="text;html=1;strokeColor=none;fillColor=none;align=center;verticalAlign=middle;whiteSpace=wrap;rounded=0;labelBackgroundColor=none;fontFamily=Comic Sans MS;fontSize=14;fontColor=#1A1A1A;" vertex="1" parent="1">
          <mxGeometry x="188" y="297" width="40" height="20" as="geometry" />
        </mxCell>
        <mxCell id="ge5Rd4oWmrTJXzyXmEn_-12" value="" style="rounded=0;whiteSpace=wrap;html=1;labelBackgroundColor=none;strokeColor=#FFFFFF;strokeWidth=2;fillColor=#66B2FF;gradientColor=none;fontFamily=Comic Sans MS;fontSize=14;fontColor=#1A1A1A;align=center;" vertex="1" parent="1">
          <mxGeometry x="307" y="190" width="120" height="210" as="geometry" />
        </mxCell>
        <mxCell id="ge5Rd4oWmrTJXzyXmEn_-13" value="&lt;font style=&quot;font-size: 12px&quot;&gt;TopicA-Part0&lt;/font&gt;" style="rounded=0;whiteSpace=wrap;html=1;labelBackgroundColor=none;strokeColor=#1A1A1A;strokeWidth=2;fillColor=#E5CCFF;gradientColor=none;fontFamily=Comic Sans MS;fontSize=14;fontColor=#1A1A1A;align=center;" vertex="1" parent="1">
          <mxGeometry x="322" y="232" width="90" height="40" as="geometry" />
        </mxCell>
        <mxCell id="ge5Rd4oWmrTJXzyXmEn_-14" value="Follower" style="text;html=1;strokeColor=none;fillColor=none;align=center;verticalAlign=middle;whiteSpace=wrap;rounded=0;labelBackgroundColor=none;fontFamily=Comic Sans MS;fontSize=14;fontColor=#1A1A1A;" vertex="1" parent="1">
          <mxGeometry x="346" y="206" width="40" height="20" as="geometry" />
        </mxCell>
        <mxCell id="ge5Rd4oWmrTJXzyXmEn_-15" value="&lt;font style=&quot;font-size: 12px&quot;&gt;TopicA-Part2&lt;/font&gt;" style="rounded=0;whiteSpace=wrap;html=1;labelBackgroundColor=none;strokeColor=#1A1A1A;strokeWidth=2;fillColor=#FFFF99;gradientColor=none;fontFamily=Comic Sans MS;fontSize=14;fontColor=#1A1A1A;align=center;" vertex="1" parent="1">
          <mxGeometry x="322" y="322" width="90" height="40" as="geometry" />
        </mxCell>
        <mxCell id="ge5Rd4oWmrTJXzyXmEn_-16" value="Leader" style="text;html=1;strokeColor=none;fillColor=none;align=center;verticalAlign=middle;whiteSpace=wrap;rounded=0;labelBackgroundColor=none;fontFamily=Comic Sans MS;fontSize=14;fontColor=#1A1A1A;" vertex="1" parent="1">
          <mxGeometry x="347" y="297" width="40" height="20" as="geometry" />
        </mxCell>
        <mxCell id="ge5Rd4oWmrTJXzyXmEn_-17" value="" style="rounded=0;whiteSpace=wrap;html=1;labelBackgroundColor=none;strokeColor=#FFFFFF;strokeWidth=2;fillColor=#66B2FF;gradientColor=none;fontFamily=Comic Sans MS;fontSize=14;fontColor=#1A1A1A;align=center;" vertex="1" parent="1">
          <mxGeometry x="468" y="190" width="120" height="210" as="geometry" />
        </mxCell>
        <mxCell id="ge5Rd4oWmrTJXzyXmEn_-18" value="&lt;font style=&quot;font-size: 12px&quot;&gt;TopicA-Part1&lt;/font&gt;" style="rounded=0;whiteSpace=wrap;html=1;labelBackgroundColor=none;strokeColor=#1A1A1A;strokeWidth=2;fillColor=#99FFCC;gradientColor=none;fontFamily=Comic Sans MS;fontSize=14;fontColor=#1A1A1A;align=center;" vertex="1" parent="1">
          <mxGeometry x="483" y="232" width="90" height="40" as="geometry" />
        </mxCell>
        <mxCell id="ge5Rd4oWmrTJXzyXmEn_-19" value="Leader" style="text;html=1;strokeColor=none;fillColor=none;align=center;verticalAlign=middle;whiteSpace=wrap;rounded=0;labelBackgroundColor=none;fontFamily=Comic Sans MS;fontSize=14;fontColor=#1A1A1A;" vertex="1" parent="1">
          <mxGeometry x="507" y="206" width="40" height="20" as="geometry" />
        </mxCell>
        <mxCell id="ge5Rd4oWmrTJXzyXmEn_-20" value="&lt;font style=&quot;font-size: 12px&quot;&gt;TopicA-Part2&lt;/font&gt;" style="rounded=0;whiteSpace=wrap;html=1;labelBackgroundColor=none;strokeColor=#1A1A1A;strokeWidth=2;fillColor=#FFFF99;gradientColor=none;fontFamily=Comic Sans MS;fontSize=14;fontColor=#1A1A1A;align=center;" vertex="1" parent="1">
          <mxGeometry x="483" y="322" width="90" height="40" as="geometry" />
        </mxCell>
        <mxCell id="ge5Rd4oWmrTJXzyXmEn_-21" value="Follower" style="text;html=1;strokeColor=none;fillColor=none;align=center;verticalAlign=middle;whiteSpace=wrap;rounded=0;labelBackgroundColor=none;fontFamily=Comic Sans MS;fontSize=14;fontColor=#1A1A1A;" vertex="1" parent="1">
          <mxGeometry x="508" y="297" width="40" height="20" as="geometry" />
        </mxCell>
        <mxCell id="ge5Rd4oWmrTJXzyXmEn_-22" value="Partitioned Data&lt;div&gt;Publication&lt;/div&gt;" style="text;html=1;strokeColor=none;fillColor=none;align=center;verticalAlign=middle;whiteSpace=wrap;rounded=0;labelBackgroundColor=none;fontFamily=Comic Sans MS;fontSize=14;fontColor=#1A1A1A;" vertex="1" parent="1">
          <mxGeometry x="55" y="130" width="80" height="40" as="geometry" />
        </mxCell>
        <mxCell id="ge5Rd4oWmrTJXzyXmEn_-23" style="edgeStyle=none;rounded=1;jumpStyle=none;jumpSize=6;html=1;entryX=0.5;entryY=0;shadow=0;labelBackgroundColor=none;startArrow=none;startFill=0;endArrow=classic;endFill=1;jettySize=auto;orthogonalLoop=1;strokeColor=#1A1A1A;strokeWidth=2;fillColor=#B3FF66;gradientColor=#CCFF99;fontFamily=Comic Sans MS;fontSize=14;fontColor=#1A1A1A;" edge="1" parent="1" source="ge5Rd4oWmrTJXzyXmEn_-25" target="ge5Rd4oWmrTJXzyXmEn_-17">
          <mxGeometry relative="1" as="geometry" />
        </mxCell>
        <mxCell id="ge5Rd4oWmrTJXzyXmEn_-24" style="edgeStyle=none;rounded=1;jumpStyle=none;jumpSize=6;html=1;entryX=0.5;entryY=0;shadow=0;labelBackgroundColor=none;startArrow=none;startFill=0;endArrow=classic;endFill=1;jettySize=auto;orthogonalLoop=1;strokeColor=#1A1A1A;strokeWidth=2;fillColor=#B3FF66;gradientColor=#CCFF99;fontFamily=Comic Sans MS;fontSize=14;fontColor=#1A1A1A;exitX=0.5;exitY=1;" edge="1" parent="1" source="ge5Rd4oWmrTJXzyXmEn_-25" target="ge5Rd4oWmrTJXzyXmEn_-12">
          <mxGeometry relative="1" as="geometry" />
        </mxCell>
        <mxCell id="ge5Rd4oWmrTJXzyXmEn_-25" value="Producer" style="rounded=1;whiteSpace=wrap;html=1;labelBackgroundColor=none;strokeColor=#1A1A1A;strokeWidth=2;fillColor=#F2F2F2;gradientColor=none;fontFamily=Comic Sans MS;fontSize=14;fontColor=#1A1A1A;align=center;" vertex="1" parent="1">
          <mxGeometry x="482" y="70" width="90" height="40" as="geometry" />
        </mxCell>
        <mxCell id="ge5Rd4oWmrTJXzyXmEn_-26" value="(Push)" style="text;html=1;resizable=0;points=[];autosize=1;align=left;verticalAlign=top;spacingTop=-4;fontSize=14;fontFamily=Comic Sans MS;fontColor=#1A1A1A;" vertex="1" parent="1">
          <mxGeometry x="143" y="140" width="60" height="20" as="geometry" />
        </mxCell>
        <mxCell id="ge5Rd4oWmrTJXzyXmEn_-27" style="edgeStyle=none;rounded=1;jumpStyle=none;jumpSize=6;html=1;entryX=1;entryY=0.5;shadow=0;labelBackgroundColor=none;startArrow=none;startFill=0;endArrow=classic;endFill=1;jettySize=auto;orthogonalLoop=1;strokeColor=#97D077;strokeWidth=2;fillColor=#B3FF66;gradientColor=#CCFF99;fontFamily=Comic Sans MS;fontSize=14;fontColor=#1A1A1A;" edge="1" parent="1" source="ge5Rd4oWmrTJXzyXmEn_-30" target="ge5Rd4oWmrTJXzyXmEn_-17">
          <mxGeometry relative="1" as="geometry" />
        </mxCell>
        <mxCell id="ge5Rd4oWmrTJXzyXmEn_-28" style="edgeStyle=elbowEdgeStyle;rounded=1;jumpStyle=none;jumpSize=6;html=1;entryX=0.5;entryY=0;shadow=0;labelBackgroundColor=none;startArrow=none;startFill=0;endArrow=classic;endFill=1;jettySize=auto;orthogonalLoop=1;strokeColor=#97D077;strokeWidth=2;fillColor=#B3FF66;gradientColor=#CCFF99;fontFamily=Comic Sans MS;fontSize=14;fontColor=#1A1A1A;" edge="1" parent="1" source="ge5Rd4oWmrTJXzyXmEn_-30" target="ge5Rd4oWmrTJXzyXmEn_-12">
          <mxGeometry relative="1" as="geometry">
            <Array as="points">
              <mxPoint x="568" y="170" />
            </Array>
          </mxGeometry>
        </mxCell>
        <mxCell id="ge5Rd4oWmrTJXzyXmEn_-29" style="edgeStyle=elbowEdgeStyle;rounded=1;jumpStyle=none;jumpSize=6;html=1;entryX=0.5;entryY=1;shadow=0;labelBackgroundColor=none;startArrow=none;startFill=0;endArrow=classic;endFill=1;jettySize=auto;orthogonalLoop=1;strokeColor=#97D077;strokeWidth=2;fillColor=#B3FF66;gradientColor=#CCFF99;fontFamily=Comic Sans MS;fontSize=14;fontColor=#1A1A1A;exitX=0.5;exitY=1;" edge="1" parent="1" source="ge5Rd4oWmrTJXzyXmEn_-30" target="ge5Rd4oWmrTJXzyXmEn_-7">
          <mxGeometry relative="1" as="geometry">
            <Array as="points">
              <mxPoint x="498" y="430" />
              <mxPoint x="768" y="400" />
            </Array>
          </mxGeometry>
        </mxCell>
        <mxCell id="ge5Rd4oWmrTJXzyXmEn_-30" value="ZooKeeper" style="rounded=1;whiteSpace=wrap;html=1;labelBackgroundColor=none;strokeColor=#1A1A1A;strokeWidth=2;fillColor=#00CC66;gradientColor=none;fontFamily=Comic Sans MS;fontSize=14;fontColor=#1A1A1A;align=center;" vertex="1" parent="1">
          <mxGeometry x="718" y="273" width="110" height="45" as="geometry" />
        </mxCell>
        <mxCell id="ge5Rd4oWmrTJXzyXmEn_-31" value="" style="rounded=0;whiteSpace=wrap;html=1;labelBackgroundColor=none;strokeColor=#1A1A1A;strokeWidth=2;fillColor=none;gradientColor=none;fontFamily=Comic Sans MS;fontSize=14;fontColor=#1A1A1A;align=center;dashed=1;" vertex="1" parent="1">
          <mxGeometry x="73" y="504" width="340" height="100" as="geometry" />
        </mxCell>
        <mxCell id="ge5Rd4oWmrTJXzyXmEn_-32" style="edgeStyle=none;rounded=1;jumpStyle=none;jumpSize=6;html=1;entryX=0.5;entryY=1;shadow=0;labelBackgroundColor=none;startArrow=none;startFill=0;endArrow=classic;endFill=1;jettySize=auto;orthogonalLoop=1;strokeColor=#1A1A1A;strokeWidth=2;fillColor=#B3FF66;gradientColor=#CCFF99;fontFamily=Comic Sans MS;fontSize=14;fontColor=#1A1A1A;exitX=0.5;exitY=0;" edge="1" parent="1" source="ge5Rd4oWmrTJXzyXmEn_-33" target="ge5Rd4oWmrTJXzyXmEn_-12">
          <mxGeometry relative="1" as="geometry" />
        </mxCell>
        <mxCell id="ge5Rd4oWmrTJXzyXmEn_-33" value="Consumer" style="rounded=1;whiteSpace=wrap;html=1;labelBackgroundColor=none;strokeColor=#1A1A1A;strokeWidth=2;fillColor=#FFCC99;gradientColor=none;fontFamily=Comic Sans MS;fontSize=14;fontColor=#1A1A1A;align=center;" vertex="1" parent="1">
          <mxGeometry x="198" y="524" width="91" height="40" as="geometry" />
        </mxCell>
        <mxCell id="ge5Rd4oWmrTJXzyXmEn_-34" style="edgeStyle=none;rounded=1;jumpStyle=none;jumpSize=6;html=1;entryX=0.5;entryY=1;shadow=0;labelBackgroundColor=none;startArrow=none;startFill=0;endArrow=classic;endFill=1;jettySize=auto;orthogonalLoop=1;strokeColor=#1A1A1A;strokeWidth=2;fillColor=#B3FF66;gradientColor=#CCFF99;fontFamily=Comic Sans MS;fontSize=14;fontColor=#1A1A1A;exitX=0.5;exitY=0;" edge="1" parent="1" source="ge5Rd4oWmrTJXzyXmEn_-35" target="ge5Rd4oWmrTJXzyXmEn_-17">
          <mxGeometry relative="1" as="geometry" />
        </mxCell>
        <mxCell id="ge5Rd4oWmrTJXzyXmEn_-35" value="Consumer" style="rounded=1;whiteSpace=wrap;html=1;labelBackgroundColor=none;strokeColor=#1A1A1A;strokeWidth=2;fillColor=#FFCC99;gradientColor=none;fontFamily=Comic Sans MS;fontSize=14;fontColor=#1A1A1A;align=center;" vertex="1" parent="1">
          <mxGeometry x="306" y="524" width="91" height="40" as="geometry" />
        </mxCell>
        <mxCell id="ge5Rd4oWmrTJXzyXmEn_-36" value="Consumer Group1" style="text;html=1;strokeColor=none;fillColor=none;align=center;verticalAlign=middle;whiteSpace=wrap;rounded=0;labelBackgroundColor=none;fontFamily=Comic Sans MS;fontSize=14;fontColor=#1A1A1A;" vertex="1" parent="1">
          <mxGeometry x="178" y="574" width="130" height="20" as="geometry" />
        </mxCell>
        <mxCell id="ge5Rd4oWmrTJXzyXmEn_-37" style="rounded=1;jumpStyle=none;jumpSize=6;html=1;entryX=0.5;entryY=1;shadow=0;labelBackgroundColor=none;startArrow=none;startFill=0;endArrow=classic;endFill=1;jettySize=auto;orthogonalLoop=1;strokeColor=#1A1A1A;strokeWidth=2;fillColor=#B3FF66;gradientColor=#CCFF99;fontFamily=Comic Sans MS;fontSize=14;fontColor=#1A1A1A;" edge="1" parent="1" source="ge5Rd4oWmrTJXzyXmEn_-38" target="ge5Rd4oWmrTJXzyXmEn_-7">
          <mxGeometry relative="1" as="geometry" />
        </mxCell>
        <mxCell id="ge5Rd4oWmrTJXzyXmEn_-38" value="Consumer" style="rounded=1;whiteSpace=wrap;html=1;labelBackgroundColor=none;strokeColor=#1A1A1A;strokeWidth=2;fillColor=#FFCC99;gradientColor=none;fontFamily=Comic Sans MS;fontSize=14;fontColor=#1A1A1A;align=center;" vertex="1" parent="1">
          <mxGeometry x="89" y="524" width="91" height="40" as="geometry" />
        </mxCell>
        <mxCell id="ge5Rd4oWmrTJXzyXmEn_-39" value="" style="rounded=0;whiteSpace=wrap;html=1;labelBackgroundColor=none;strokeColor=#1A1A1A;strokeWidth=2;fillColor=none;gradientColor=none;fontFamily=Comic Sans MS;fontSize=14;fontColor=#1A1A1A;align=center;dashed=1;" vertex="1" parent="1">
          <mxGeometry x="438" y="504" width="235" height="100" as="geometry" />
        </mxCell>
        <mxCell id="ge5Rd4oWmrTJXzyXmEn_-40" style="edgeStyle=none;rounded=1;jumpStyle=none;jumpSize=6;html=1;entryX=0.5;entryY=1;shadow=0;labelBackgroundColor=none;startArrow=none;startFill=0;endArrow=classic;endFill=1;jettySize=auto;orthogonalLoop=1;strokeColor=#1A1A1A;strokeWidth=2;fillColor=#B3FF66;gradientColor=#CCFF99;fontFamily=Comic Sans MS;fontSize=14;fontColor=#CCE5FF;exitX=0.5;exitY=0;" edge="1" parent="1" source="ge5Rd4oWmrTJXzyXmEn_-41" target="ge5Rd4oWmrTJXzyXmEn_-17">
          <mxGeometry relative="1" as="geometry" />
        </mxCell>
        <mxCell id="ge5Rd4oWmrTJXzyXmEn_-41" value="Consumer" style="rounded=1;whiteSpace=wrap;html=1;labelBackgroundColor=none;strokeColor=#1A1A1A;strokeWidth=2;fillColor=#FFCC99;gradientColor=none;fontFamily=Comic Sans MS;fontSize=14;fontColor=#1A1A1A;align=center;" vertex="1" parent="1">
          <mxGeometry x="563" y="524" width="91" height="40" as="geometry" />
        </mxCell>
        <mxCell id="ge5Rd4oWmrTJXzyXmEn_-42" value="Consumer Group2" style="text;html=1;strokeColor=none;fillColor=none;align=center;verticalAlign=middle;whiteSpace=wrap;rounded=0;labelBackgroundColor=none;fontFamily=Comic Sans MS;fontSize=14;fontColor=#1A1A1A;" vertex="1" parent="1">
          <mxGeometry x="500" y="574" width="130" height="20" as="geometry" />
        </mxCell>
        <mxCell id="ge5Rd4oWmrTJXzyXmEn_-43" style="edgeStyle=none;rounded=1;jumpStyle=none;jumpSize=6;html=1;entryX=0.5;entryY=1;shadow=0;labelBackgroundColor=none;startArrow=none;startFill=0;endArrow=classic;endFill=1;jettySize=auto;orthogonalLoop=1;strokeColor=#1A1A1A;strokeWidth=2;fillColor=#B3FF66;gradientColor=#CCFF99;fontFamily=Comic Sans MS;fontSize=14;fontColor=#CCE5FF;exitX=0.5;exitY=0;" edge="1" parent="1" source="ge5Rd4oWmrTJXzyXmEn_-45" target="ge5Rd4oWmrTJXzyXmEn_-7">
          <mxGeometry relative="1" as="geometry" />
        </mxCell>
        <mxCell id="ge5Rd4oWmrTJXzyXmEn_-44" style="edgeStyle=none;rounded=1;jumpStyle=none;jumpSize=6;html=1;entryX=0.5;entryY=1;shadow=0;labelBackgroundColor=none;startArrow=none;startFill=0;endArrow=classic;endFill=1;jettySize=auto;orthogonalLoop=1;strokeColor=#1A1A1A;strokeWidth=2;fillColor=#B3FF66;gradientColor=#CCFF99;fontFamily=Comic Sans MS;fontSize=14;fontColor=#CCE5FF;exitX=0.5;exitY=0;" edge="1" parent="1" source="ge5Rd4oWmrTJXzyXmEn_-45" target="ge5Rd4oWmrTJXzyXmEn_-12">
          <mxGeometry relative="1" as="geometry" />
        </mxCell>
        <mxCell id="ge5Rd4oWmrTJXzyXmEn_-45" value="Consumer" style="rounded=1;whiteSpace=wrap;html=1;labelBackgroundColor=none;strokeColor=#1A1A1A;strokeWidth=2;fillColor=#FFCC99;gradientColor=none;fontFamily=Comic Sans MS;fontSize=14;fontColor=#1A1A1A;align=center;" vertex="1" parent="1">
          <mxGeometry x="454" y="524" width="91" height="40" as="geometry" />
        </mxCell>
        <mxCell id="ge5Rd4oWmrTJXzyXmEn_-46" value="Broker1" style="text;html=1;strokeColor=none;fillColor=none;align=center;verticalAlign=middle;whiteSpace=wrap;rounded=0;dashed=1;labelBackgroundColor=none;fontFamily=Comic Sans MS;fontSize=14;fontColor=#CCE5FF;" vertex="1" parent="1">
          <mxGeometry x="187" y="370" width="40" height="20" as="geometry" />
        </mxCell>
        <mxCell id="ge5Rd4oWmrTJXzyXmEn_-47" value="Broker2" style="text;html=1;strokeColor=none;fillColor=none;align=center;verticalAlign=middle;whiteSpace=wrap;rounded=0;dashed=1;labelBackgroundColor=none;fontFamily=Comic Sans MS;fontSize=14;fontColor=#CCE5FF;" vertex="1" parent="1">
          <mxGeometry x="347" y="370" width="40" height="20" as="geometry" />
        </mxCell>
        <mxCell id="ge5Rd4oWmrTJXzyXmEn_-48" value="Broker3" style="text;html=1;strokeColor=none;fillColor=none;align=center;verticalAlign=middle;whiteSpace=wrap;rounded=0;dashed=1;labelBackgroundColor=none;fontFamily=Comic Sans MS;fontSize=14;fontColor=#CCE5FF;" vertex="1" parent="1">
          <mxGeometry x="508" y="370" width="40" height="20" as="geometry" />
        </mxCell>
        <mxCell id="ge5Rd4oWmrTJXzyXmEn_-49" value="Ordered&lt;div&gt;Subscription&lt;/div&gt;" style="text;html=1;strokeColor=none;fillColor=none;align=center;verticalAlign=middle;whiteSpace=wrap;rounded=0;labelBackgroundColor=none;fontFamily=Comic Sans MS;fontSize=14;fontColor=#1A1A1A;" vertex="1" parent="1">
          <mxGeometry x="38" y="420" width="80" height="30" as="geometry" />
        </mxCell>
        <mxCell id="ge5Rd4oWmrTJXzyXmEn_-50" value="(Pull)" style="text;html=1;resizable=0;points=[];autosize=1;align=left;verticalAlign=top;spacingTop=-4;fontSize=14;fontFamily=Comic Sans MS;fontColor=#1A1A1A;" vertex="1" parent="1">
          <mxGeometry x="133" y="425" width="50" height="20" as="geometry" />
        </mxCell>
      </root>
    </mxGraphModel>
  </diagram>
</mxfile>
